<svg xmlns="http://www.w3.org/2000/svg" viewBox="0 0 159.74 159.74"><defs></defs><title>Asset 3</title><g id="Layer_2" data-name="Layer 2"><g id="Deloitte_Icon_Library" data-name="Deloitte Icon Library"><path class="cls-1" d="M113.15,93.18a3.33,3.33,0,0,0-3.33,3.33v8.61L92.21,87.5a3.33,3.33,0,0,0-4.71,4.71l17.61,17.61H96.51a3.33,3.33,0,0,0,0,6.66h16.64a3.33,3.33,0,0,0,3.07-2.05,3.29,3.29,0,0,0,.23-1.21s0,0,0-.06V96.51a3.33,3.33,0,0,0-3.33-3.33ZM54.63,49.92h8.61a3.33,3.33,0,1,0,0-6.66H46.59l-.05,0a3.24,3.24,0,0,0-1.22.23,3.33,3.33,0,0,0-2.05,3.07V63.23a3.33,3.33,0,0,0,6.66,0V54.63L67.53,72.24a3.33,3.33,0,0,0,4.71-4.71L54.63,49.92ZM67.53,87.5,49.92,105.12V96.51a3.33,3.33,0,1,0-6.66,0v16.64s0,0,0,.06a3.29,3.29,0,0,0,.23,1.21,3.33,3.33,0,0,0,3.07,2.05H63.23a3.33,3.33,0,1,0,0-6.66H54.63L72.24,92.21a3.33,3.33,0,0,0-4.71-4.71Zm48.94-40.91V63.23a3.33,3.33,0,1,1-6.66,0V54.63L92.21,72.24a3.33,3.33,0,0,1-4.71-4.71l17.61-17.61H96.51a3.33,3.33,0,1,1,0-6.66h16.64l.05,0a3.26,3.26,0,0,1,1.22.23,3.33,3.33,0,0,1,2.05,3.07Z"/><path class="cls-1" d="M79.87,0a79.87,79.87,0,1,0,79.87,79.87A79.87,79.87,0,0,0,79.87,0Zm0,6.66A73.21,73.21,0,1,1,6.66,79.87,73.3,73.3,0,0,1,79.87,6.66"/></g></g></svg>