<?xml version="1.0" encoding="utf-8"?>
<!-- Generator: Adobe Illustrator 21.1.0, SVG Export Plug-In . SVG Version: 6.00 Build 0)  -->
<svg version="1.1" id="Layer_1" xmlns="http://www.w3.org/2000/svg" xmlns:xlink="http://www.w3.org/1999/xlink" x="0px" y="0px"
	 viewBox="0 0 159.7 159.7" style="enable-background:new 0 0 159.7 159.7;" xml:space="preserve">
<style type="text/css">
	.st0{fill:#53565A;}
</style>
<g>
	<path class="st0" d="M79.9,109.8c-0.9,0-1.7-0.3-2.4-1L30.9,62.3c-1.3-1.3-1.3-3.4,0-4.7c1.3-1.3,3.4-1.3,4.7,0l44.2,44.2
		l44.2-44.2c1.3-1.3,3.4-1.3,4.7,0c1.3,1.3,1.3,3.4,0,4.7l-46.6,46.6C81.6,109.5,80.7,109.8,79.9,109.8L79.9,109.8z"/>
	<path class="st0" d="M79.9,0C35.8,0,0,35.8,0,79.9s35.8,79.9,79.9,79.9s79.9-35.8,79.9-79.9S124,0,79.9,0L79.9,0L79.9,0z M79.9,6.7
		c40.4,0,73.2,32.8,73.2,73.2c0,40.4-32.8,73.2-73.2,73.2c-40.4,0-73.2-32.8-73.2-73.2C6.7,39.5,39.5,6.7,79.9,6.7"/>
</g>
</svg>
