<?xml version="1.0" encoding="utf-8"?>
<!-- Generator: Adobe Illustrator 21.1.0, SVG Export Plug-In . SVG Version: 6.00 Build 0)  -->
<svg version="1.1" id="Layer_1" xmlns="http://www.w3.org/2000/svg" xmlns:xlink="http://www.w3.org/1999/xlink" x="0px" y="0px"
	 viewBox="0 0 159.7 159.7" style="enable-background:new 0 0 159.7 159.7;" xml:space="preserve">
<style type="text/css">
	.st0{fill:#85BB24;}
</style>
<g>
	<path class="st0" d="M125.5,52.3l-66.6,66.6c-0.6,0.6-1.5,1-2.4,1c-0.9,0-1.7-0.3-2.4-1L30.9,95.5c-1.3-1.3-1.3-3.4,0-4.7
		c1.3-1.3,3.4-1.3,4.7,0l20.9,20.9l64.2-64.2c1.3-1.3,3.4-1.3,4.7,0C126.8,48.9,126.8,51,125.5,52.3L125.5,52.3z M79.9,0
		C35.8,0,0,35.8,0,79.9s35.8,79.9,79.9,79.9c44.1,0,79.9-35.8,79.9-79.9S124,0,79.9,0L79.9,0z"/>
</g>
</svg>
