<?xml version="1.0" encoding="utf-8"?>
<!-- Generator: Adobe Illustrator 21.1.0, SVG Export Plug-In . SVG Version: 6.00 Build 0)  -->
<svg version="1.1" id="Layer_1" xmlns="http://www.w3.org/2000/svg" xmlns:xlink="http://www.w3.org/1999/xlink" x="0px" y="0px"
	 viewBox="0 0 159.7 159.7" style="enable-background:new 0 0 159.7 159.7;" xml:space="preserve">
<title>Asset 1</title>
<g id="Layer_2">
	<g id="Deloitte_Icon_Library">
		<path class="st0" d="M0,79.9c0,44.1,35.8,79.9,79.9,79.9s79.9-35.8,79.9-79.9S124,0,79.9,0S0,35.8,0,79.9C0,79.9,0,79.9,0,79.9z
			 M6.7,79.9c0-40.4,32.8-73.2,73.2-73.2s73.2,32.8,73.2,73.2s-32.8,73.2-73.2,73.2C39.5,153,6.7,120.3,6.7,79.9"/>
		<path class="st0" d="M123.1,53.3c0,1.8-1.5,3.3-3.3,3.3c-1.8,0-3.3-1.5-3.3-3.3c0-1.8,1.5-3.3,3.3-3.3
			C121.6,49.9,123.1,51.4,123.1,53.3L123.1,53.3z M123.1,79.9c0,1.8-1.5,3.3-3.3,3.3c-1.8,0-3.3-1.5-3.3-3.3c0-1.8,1.5-3.3,3.3-3.3
			C121.6,76.5,123.1,78,123.1,79.9L123.1,79.9z M36.6,79.9c0-1.8,1.5-3.3,3.3-3.3c1.8,0,3.3,1.5,3.3,3.3c0,1.8-1.5,3.3-3.3,3.3
			S36.6,81.7,36.6,79.9L36.6,79.9z M36.6,106.5c0-1.8,1.5-3.3,3.3-3.3s3.3,1.5,3.3,3.3c0,1.8-1.5,3.3-3.3,3.3S36.6,108.3,36.6,106.5
			L36.6,106.5z M110.4,49.9H89.8c-9.8,0-13.3,8-13.3,13.3v13.3H49.9c-0.2,0-0.4,0.1-0.6,0.1c-1.8-5.2-7.5-8-12.7-6.3
			s-8,7.5-6.3,12.7c1.8,5.2,7.5,8,12.7,6.3c2.9-1,5.3-3.3,6.3-6.3c0.2,0.1,0.4,0.1,0.6,0.1h26.6v13.3c0,1.1-0.3,6.7-6.7,6.7H49.3
			c-1.8-5.2-7.6-7.9-12.8-6.1s-7.9,7.6-6.1,12.8c1.8,5.2,7.6,7.9,12.8,6.1c2.9-1,5.1-3.2,6.1-6.1h20.6c9.8,0,13.3-8,13.3-13.3V83.2
			h27.2c1.8,5.2,7.6,7.9,12.8,6.1c5.2-1.8,7.9-7.6,6.1-12.8c-1.8-5.2-7.6-7.9-12.8-6.1c-2.9,1-5.1,3.2-6.1,6.1H83.2V63.2
			c0-1.1,0.3-6.7,6.7-6.7h20.6c1.8,5.2,7.6,7.9,12.8,6.1c5.2-1.8,7.9-7.6,6.1-12.8s-7.6-7.9-12.8-6.1
			C113.7,44.8,111.4,47.1,110.4,49.9L110.4,49.9z"/>
	</g>
</g>
</svg>
