<?xml version="1.0" encoding="utf-8"?>
<!-- Generator: Adobe Illustrator 21.1.0, SVG Export Plug-In . SVG Version: 6.00 Build 0)  -->
<svg version="1.1" id="Layer_1" xmlns="http://www.w3.org/2000/svg" xmlns:xlink="http://www.w3.org/1999/xlink" x="0px" y="0px"
	 viewBox="0 0 159.7 159.7" style="enable-background:new 0 0 159.7 159.7;" xml:space="preserve">
<g id="Layer_2">
	<g id="Deloitte_Icon_Library">
		<path class="st0" d="M39.9,43.3h16.6v16.6c0,1.8,1.5,3.3,3.3,3.3l0,0h16.6v16.6c0,1.8,1.5,3.3,3.3,3.3l0,0h16.6v16.6
			c0,1.8,1.5,3.3,3.3,3.3h16.6v16.6c0,1.8,1.5,3.3,3.3,3.3s3.3-1.5,3.3-3.3c0,0,0,0,0,0v-20c0-1.8-1.5-3.3-3.3-3.3h0h-16.7V79.9
			c0-1.8-1.5-3.3-3.3-3.3l0,0H83.2V59.9c0-1.8-1.5-3.3-3.3-3.3l0,0H63.2V39.9c0-1.8-1.5-3.3-3.3-3.3h-20c-1.8,0-3.3,1.5-3.3,3.3
			C36.6,41.8,38.1,43.3,39.9,43.3C39.9,43.3,39.9,43.3,39.9,43.3L39.9,43.3z M159.7,79.9C159.7,35.8,124,0,79.9,0S0,35.8,0,79.9
			s35.8,79.9,79.9,79.9S159.7,124,159.7,79.9C159.7,79.9,159.7,79.9,159.7,79.9z M153.1,79.9c0,40.4-32.8,73.2-73.2,73.2
			S6.7,120.3,6.7,79.9S39.4,6.7,79.9,6.7C120.3,6.7,153,39.5,153.1,79.9"/>
	</g>
</g>
</svg>
