<?xml version="1.0" encoding="utf-8"?>
<!-- Generator: Adobe Illustrator 21.1.0, SVG Export Plug-In . SVG Version: 6.00 Build 0)  -->
<svg version="1.1" id="Layer_1" xmlns="http://www.w3.org/2000/svg" xmlns:xlink="http://www.w3.org/1999/xlink" x="0px" y="0px"
	 viewBox="0 0 159.7 159.7" style="enable-background:new 0 0 159.7 159.7;" xml:space="preserve">
<style type="text/css">
	.st0{fill:#DA291C;}
</style>
<g>
	<path class="st0" d="M116.5,79.9c0-1.8-1.5-3.3-3.3-3.3h-3.3V59.9c0-16.5-13.4-30-30-30c-16.5,0-30,13.4-30,30v16.6h-3.3
		c-1.8,0-3.3,1.5-3.3,3.3v46.6c0,1.8,1.5,3.3,3.3,3.3h66.6c1.8,0,3.3-1.5,3.3-3.3V79.9L116.5,79.9z M159.7,79.9
		c0,44.1-35.8,79.9-79.9,79.9S0,124,0,79.9C0,35.8,35.8,0,79.9,0S159.7,35.8,159.7,79.9L159.7,79.9z M49.9,123.1h59.9V83.2H49.9
		V123.1L49.9,123.1z M103.2,76.5H56.6V59.9c0-12.8,10.5-23.3,23.3-23.3s23.3,10.5,23.3,23.3V76.5L103.2,76.5z"/>
</g>
</svg>
