<?xml version="1.0" encoding="utf-8"?>
<!-- Generator: Adobe Illustrator 21.1.0, SVG Export Plug-In . SVG Version: 6.00 Build 0)  -->
<svg version="1.1" id="Layer_1" xmlns="http://www.w3.org/2000/svg" xmlns:xlink="http://www.w3.org/1999/xlink" x="0px" y="0px"
	 viewBox="0 0 159.7 159.7" style="enable-background:new 0 0 159.7 159.7;" xml:space="preserve">
<style type="text/css">
	.st0{fill:#ED8B00;}
</style>
<g>
	<path class="st0" d="M129.1,115.3c-0.7,0.7-1.6,1.1-2.5,1.1c-0.8,0-1.6-0.3-2.2-0.8c-2.3-2-9.9-3.2-15.4-4
		c-4.2-0.6-7.8-1.2-10.2-2.1c-4.7-1.8-8.2-5-9.2-8.5c-0.7-2.3-0.3-4.6,1.1-6.5c3.6-5,7.6-14.3,9.4-22.1c3-12.6,2.1-22.1-2.8-28.2
		c-6.2-7.7-17-7.6-17.1-7.6c0,0,0,0-0.1,0c0,0,0,0-0.1,0c0,0-0.1,0-0.1,0c-0.3,0-11-0.1-17.1,7.6C57.9,50.3,57,59.8,60,72.4
		c1.9,7.9,5.9,17.2,9.4,22.1c1.4,1.9,1.8,4.2,1.1,6.5c-1,3.5-4.5,6.7-9.2,8.5c-2.4,0.9-6,1.4-10.2,2.1c-5.5,0.8-13.1,1.9-15.4,4
		c-0.6,0.6-1.4,0.8-2.2,0.8c-0.9,0-1.8-0.4-2.5-1.1c-1.2-1.4-1.1-3.5,0.3-4.7c3.8-3.3,11.4-4.5,18.8-5.6c3.5-0.5,7.1-1.1,8.8-1.7
		c3-1.1,4.9-3,5.3-4.2c0.1-0.3,0-0.5-0.1-0.7C60,92.8,55.7,82.7,53.6,74c-3.6-14.8-2.2-26.2,4.1-34c8.1-10,21.1-10,22.3-10
		c0,0,0,0,0,0c0.6,0,14.1-0.2,22.4,10c6.3,7.8,7.7,19.3,4.1,34c-2.1,8.7-6.4,18.8-10.5,24.5c-0.2,0.2-0.2,0.4-0.1,0.7
		c0.4,1.2,2.3,3.1,5.3,4.2c1.7,0.6,5.3,1.2,8.8,1.7c7.4,1.1,15.1,2.2,18.8,5.6C130.2,111.9,130.3,114,129.1,115.3L129.1,115.3z
		 M80.1,0C36,0,0.2,35.7,0.2,79.8c0,44.1,35.8,79.9,79.9,79.9S160,124,160,79.8C160,35.7,124.2,0,80.1,0L80.1,0z"/>
</g>
</svg>
