<svg id="Layer_1" data-name="Layer 1" xmlns="http://www.w3.org/2000/svg" viewBox="0 0 159.74 159.74"><defs><style>.cls-1{fill:#98c645;}</style></defs><title>Artboard 1</title><path class="cls-1" d="M113.15,103.17a3.33,3.33,0,0,0,3.33-3.33v-20a3.33,3.33,0,0,0-6.66,0v20a3.33,3.33,0,0,0,3.33,3.33Zm-13.31,0a3.33,3.33,0,0,0,3.33-3.33V53.25a3.33,3.33,0,1,0-6.66,0V99.84a3.33,3.33,0,0,0,3.33,3.33Zm-13.31,0a3.33,3.33,0,0,0,3.33-3.33V63.23a3.33,3.33,0,0,0-6.66,0V99.84a3.33,3.33,0,0,0,3.33,3.33Zm-13.31,0a3.33,3.33,0,0,0,3.33-3.33V46.59a3.33,3.33,0,1,0-6.66,0V99.84a3.33,3.33,0,0,0,3.33,3.33Zm-13.31,0a3.33,3.33,0,0,0,3.33-3.33V76.54a3.33,3.33,0,1,0-6.66,0v23.3a3.33,3.33,0,0,0,3.33,3.33Zm-13.31,0a3.33,3.33,0,0,0,3.33-3.33V86.53a3.33,3.33,0,1,0-6.66,0V99.84a3.33,3.33,0,0,0,3.33,3.33Zm83.2,10a3.33,3.33,0,0,1-3.33,3.33H33.28A3.33,3.33,0,0,1,30,113.15V46.59a3.33,3.33,0,1,1,6.66,0v63.23h89.85a3.33,3.33,0,0,1,3.33,3.33Z"/><path class="cls-1" d="M79.87,0a79.87,79.87,0,1,0,79.87,79.87A79.87,79.87,0,0,0,79.87,0Zm0,6.66A73.21,73.21,0,1,1,6.66,79.87,73.3,73.3,0,0,1,79.87,6.66"/></svg>